<svg xmlns="http://www.w3.org/2000/svg" width="458.231" height="328.807" viewBox="0 0 458.231 328.807"><rect width="216.91" height="0.943" transform="translate(0 325.216)" fill="#3f3d56"/><path d="M109.606,616.443h6.167l2.934-23.789h-9.1Z" transform="translate(-54.467 -294.514)" fill="#ffb8b8"/><path d="M0,0H19.383V7.489H7.489A7.489,7.489,0,0,1,0,0H0Z" transform="translate(73.199 327.656) rotate(179.997)" fill="#2f2e41"/><path d="M44.379,614.292l6.114.815,6.053-23.192-9.022-1.2Z" transform="translate(-22.054 -293.548)" fill="#ffb8b8"/><path d="M0,0H19.383V7.489H7.489A7.489,7.489,0,0,1,0,0H0Z" transform="translate(39.472 328.807) rotate(-172.406)" fill="#2f2e41"/><path d="M53.348,444.64l34.711,1.509L86.55,534.185l-9.055-1.006-7.043-59.864L53.851,537.2,44.8,535.694Z" transform="translate(-22.261 -220.959)" fill="#2f2e41"/><path d="M232.971,461.4,220.9,458.929l-7.546,55.288s22.135,14.589,29.177-.5Z" transform="translate(-178.744 -290.034)" fill="#2c5e5f"/><circle cx="12.356" cy="12.356" r="12.356" transform="translate(36.606 140.158)" fill="#ffb8b8"/><path d="M205.493,457.832l-17.607,5.534s8.552,42.76-5.534,64.895c0,0,17.607,18.613,25.153-23.141C207.505,505.12,213.542,471.415,205.493,457.832Z" transform="translate(-163.338 -289.488)" fill="#2f2e41"/><path d="M252.352,463.832l13.08,8.049s7.043,58.858,0,64.392S252.352,463.832,252.352,463.832Z" transform="translate(-198.124 -292.47)" fill="#2f2e41"/><path d="M284.39,600.189a5.059,5.059,0,0,1,.487-7.742l-5.318-17.172,8.971,2.606,3.674,15.908a5.086,5.086,0,0,1-7.815,6.4Z" transform="translate(-211.645 -347.851)" fill="#ffb8b8"/><path d="M191.455,591.13a5.059,5.059,0,0,1-.508-7.74l-7.472-16.35,9.231,1.436,5.681,15.306a5.086,5.086,0,0,1-6.931,7.348Z" transform="translate(-163.896 -343.758)" fill="#ffb8b8"/><path d="M41.894,346.143l-4.528-.5L25.8,383.37l11.57,26.159,9.055-5.534L36.36,382.363l8.049-23.141Z" transform="translate(-12.819 -171.762)" fill="#2f2e41"/><path d="M125.814,355.64l2.515.5L140.4,415l-8.049,2.515L122.8,382.805Z" transform="translate(-61.022 -176.732)" fill="#2f2e41"/><path d="M217.346,415.438a7.075,7.075,0,0,1,4.248-5.552c2.378-.975,5.061-.563,7.625-.377s5.418.025,7.268-1.76a6.23,6.23,0,0,0,1.254-6.537,9.483,9.483,0,0,0-4.764-4.963,20.521,20.521,0,0,0-6.777-1.791,27.664,27.664,0,0,0-10.284.4c-3.339.871-2.478,2.739-4.435,5.581a10.065,10.065,0,0,0-1.051,9.828,17.073,17.073,0,0,0,4.53,5.174" transform="translate(-176.874 -257.852)" fill="#2f2e41"/><path d="M634.574,428.014v-.943c1.875,0,3.779-.039,5.658-.114l.038.942C638.378,427.975,636.462,428.013,634.574,428.014Zm-5.694-.109c-1.885-.074-3.8-.186-5.685-.335l.074-.94c1.875.148,3.775.26,5.648.333Zm17.075-.348-.075-.94c1.871-.15,3.766-.34,5.629-.565l.113.937c-1.876.227-3.783.418-5.667.569Zm-28.428-.55c-1.88-.225-3.778-.491-5.641-.79l.15-.931c1.85.3,3.735.561,5.6.784Zm39.735-.815-.151-.931c1.85-.3,3.722-.641,5.566-1.016l.188.924C661.009,425.547,659.124,425.891,657.262,426.192Zm-50.98-.991c-1.856-.376-3.726-.794-5.559-1.243l.224-.916c1.821.446,3.678.862,5.522,1.235Zm62.141-1.281L668.2,423c1.826-.449,3.665-.942,5.465-1.463l.263.906c-1.813.525-3.664,1.021-5.5,1.473Zm-73.2-1.429c-1.819-.525-3.649-1.093-5.44-1.689l.3-.9c1.779.592,3.6,1.157,5.4,1.678Zm84.143-1.74-.3-.894c1.78-.595,3.573-1.235,5.329-1.9l.335.881C682.959,419.508,681.154,420.152,679.362,420.751ZM584.4,418.887c-1.769-.671-3.551-1.387-5.3-2.131l.37-.868c1.734.739,3.5,1.451,5.262,2.116ZM690,416.713l-.37-.868c1.724-.736,3.455-1.517,5.145-2.32l.405.852c-1.7.809-3.445,1.595-5.18,2.336Zm-116.1-2.3c-1.713-.813-3.43-1.672-5.1-2.552l.439-.834c1.663.874,3.368,1.726,5.07,2.534Zm126.363-2.582-.439-.834c1.661-.874,3.325-1.793,4.945-2.73l.472.816c-1.631.944-3.306,1.868-4.978,2.748ZM563.8,409.107c-1.643-.95-3.285-1.944-4.879-2.954l.5-.8c1.583,1,3.214,1.99,4.846,2.934Zm146.305-2.97-.5-.8c1.581-1,3.166-2.051,4.712-3.12l.536.775C713.289,404.072,711.692,405.129,710.1,406.137Zm-155.939-3.13c-1.559-1.078-3.115-2.2-4.624-3.334l.567-.753c1.5,1.127,3.044,2.242,4.593,3.312Zm165.3-3.34-.567-.753c1.5-1.125,2.992-2.3,4.45-3.489l.6.73C722.473,397.353,720.965,398.535,719.46,399.667Zm-174.407-3.511c-1.464-1.2-2.924-2.439-4.339-3.693l.625-.705c1.406,1.246,2.856,2.48,4.311,3.668Zm183.222-3.691-.625-.705c1.4-1.245,2.8-2.536,4.158-3.836l.653.681C731.1,389.912,729.69,391.211,728.276,392.465ZM536.526,388.6c-1.36-1.307-2.716-2.662-4.028-4.027l.68-.654c1.3,1.356,2.651,2.7,4,4Zm199.963-4.023-.68-.654c1.3-1.352,2.592-2.751,3.84-4.157l.705.626c-1.256,1.415-2.556,2.824-3.865,4.185ZM528.634,380.39c-1.257-1.417-2.5-2.876-3.693-4.335l.73-.6c1.185,1.449,2.419,2.9,3.668,4.305Zm215.416-4.336-.73-.6c1.192-1.457,2.368-2.955,3.5-4.453l.754.567c-1.136,1.508-2.32,3.016-3.519,4.483Zm-222.624-4.476c-1.136-1.509-2.258-3.061-3.332-4.613l.775-.537c1.067,1.542,2.181,3.084,3.31,4.583Zm229.48-4.629-.775-.536c1.071-1.549,2.124-3.138,3.128-4.722l.8.5c-1.013,1.595-2.07,3.194-3.151,4.753Zm-235.955-4.727c-1.01-1.593-2-3.229-2.95-4.863l.816-.472c.94,1.623,1.926,3.248,2.93,4.831Zm242.061-4.9-.816-.473c.944-1.632,1.865-3.3,2.739-4.961l.834.439C758.891,354,757.963,355.677,757.013,357.319Zm-247.761-4.937c-.879-1.668-1.736-3.378-2.547-5.082l.851-.405c.806,1.692,1.657,3.391,2.53,5.048Zm253.073-5.16-.852-.405c.807-1.7,1.591-3.437,2.33-5.169l.868.37c-.741,1.743-1.531,3.493-2.346,5.2Zm-257.96-5.1c-.743-1.737-1.458-3.509-2.127-5.267l.881-.335c.664,1.746,1.375,3.506,2.113,5.231Zm262.439-5.4-.882-.334c.669-1.764,1.31-3.562,1.9-5.344l.894.3c-.6,1.794-1.246,3.6-1.915,5.38ZM500.32,331.492c-.6-1.793-1.172-3.622-1.7-5.437l.906-.262c.523,1.8,1.091,3.619,1.687,5.4ZM770.414,325.9l-.906-.262c.52-1.8,1.012-3.638,1.461-5.466l.915.225c-.454,1.84-.947,3.692-1.47,5.5Zm-273.268-5.35c-.453-1.836-.874-3.706-1.252-5.556l.924-.189c.375,1.838.794,3.7,1.244,5.519Zm275.984-5.711-.925-.188c.373-1.837.714-3.71,1.013-5.566l.931.15c-.3,1.868-.642,3.754-1.02,5.6Zm-278.263-5.449c-.3-1.862-.571-3.759-.8-5.639l.936-.113c.227,1.868.494,3.752.794,5.6Zm280.075-5.8-.937-.112c.224-1.867.414-3.761.562-5.629l.94.075c-.15,1.881-.34,3.788-.565,5.667ZM493.5,298.088c-.152-1.884-.268-3.8-.345-5.686l.942-.038c.076,1.877.192,3.777.343,5.648Zm282.35-5.843-.942-.037c.074-1.879.111-3.783.111-5.657v-.312h.943v.31c0,1.889-.038,3.8-.112,5.7Zm-281.871-5.538h-.943v-.158c0-1.84.036-3.7.106-5.535l.942.036c-.07,1.821-.105,3.671-.105,5.5Zm280.916-6.124c-.078-1.873-.195-3.773-.349-5.648l.94-.077c.154,1.887.272,3.8.35,5.685ZM494.412,275.4l-.94-.074c.148-1.888.337-3.8.559-5.668l.937.111C494.746,271.632,494.559,273.527,494.412,275.4Zm279.557-6.095c-.228-1.86-.5-3.744-.8-5.6l.931-.152c.305,1.869.577,3.766.8,5.638Zm-278.221-5.139-.931-.149c.3-1.867.64-3.753,1.014-5.6l.924.186C496.384,260.44,496.045,262.313,495.748,264.168Zm276.394-6.026c-.379-1.843-.8-3.7-1.25-5.518l.916-.227c.454,1.831.877,3.7,1.258,5.555Zm-274.156-5.064-.916-.224c.449-1.836.941-3.688,1.464-5.505l.906.261c-.52,1.805-1.009,3.645-1.454,5.468Zm271.434-5.917c-.525-1.8-1.094-3.618-1.693-5.4l.894-.3c.6,1.793,1.176,3.622,1.7,5.435Zm-268.3-4.955-.895-.3c.6-1.8,1.24-3.607,1.911-5.382l.882.333C502.347,238.624,501.708,240.423,501.116,242.207Zm264.7-5.769c-.67-1.754-1.383-3.514-2.119-5.229l.867-.372c.741,1.727,1.459,3.5,2.133,5.264ZM505.128,231.6l-.868-.369c.741-1.742,1.529-3.494,2.34-5.206l.852.4c-.807,1.7-1.588,3.44-2.325,5.171Zm256.242-5.53c-.807-1.69-1.66-3.388-2.535-5.045l.833-.44c.881,1.668,1.74,3.377,2.552,5.079Zm-251.386-4.713-.835-.438c.879-1.676,1.805-3.357,2.752-5l.817.472c-.941,1.629-1.861,3.3-2.734,4.964ZM756.1,216.082c-.943-1.623-1.93-3.248-2.935-4.828l.8-.506c1.012,1.591,2.005,3.226,2.955,4.86Zm-240.447-4.539-.8-.5c1.012-1.6,2.07-3.2,3.144-4.757l.776.536c-1.067,1.546-2.118,3.136-3.123,4.725Zm234.384-5c-1.07-1.542-2.185-3.082-3.315-4.579l.752-.568c1.137,1.507,2.26,3.058,3.337,4.61Zm-227.951-4.324-.754-.566c1.137-1.513,2.319-3.022,3.514-4.487l.731.6C524.386,199.22,523.211,200.72,522.082,202.222Zm221.14-4.7c-1.189-1.451-2.425-2.9-3.672-4.3l.7-.627c1.256,1.412,2.5,2.869,3.7,4.33Zm-213.983-4.071-.706-.625c1.252-1.415,2.551-2.824,3.86-4.19l.681.653c-1.3,1.356-2.591,2.756-3.835,4.161Zm206.468-4.382c-1.305-1.354-2.653-2.7-4.007-4l.653-.681c1.363,1.306,2.72,2.659,4.033,4.022Zm-198.635-3.784-.654-.68c1.361-1.309,2.768-2.61,4.181-3.866l.626.7c-1.4,1.247-2.8,2.54-4.154,3.84Zm190.465-4.044c-1.409-1.246-2.861-2.479-4.315-3.664l.6-.731c1.463,1.193,2.925,2.434,4.343,3.688Zm-182.008-3.466-.6-.729c1.463-1.2,2.969-2.382,4.475-3.517l.568.753c-1.5,1.128-2.992,2.3-4.445,3.494Zm173.233-3.686c-1.5-1.129-3.051-2.242-4.6-3.307l.535-.776c1.556,1.073,3.112,2.193,4.627,3.33ZM554.556,170.97l-.537-.775c1.555-1.077,3.149-2.136,4.74-3.146l.506.8c-1.58,1-3.165,2.055-4.709,3.125Zm154.883-3.308c-1.59-1-3.222-1.99-4.85-2.928l.472-.817c1.638.945,3.281,1.937,4.882,2.948Zm-145.345-2.749-.473-.816c1.631-.946,3.3-1.872,4.975-2.753l.44.834c-1.659.875-3.322,1.8-4.942,2.735ZM699.625,162c-1.666-.873-3.372-1.723-5.073-2.529l.4-.852c1.712.81,3.431,1.667,5.107,2.546Zm-125.544-2.358-.406-.851c1.7-.811,3.442-1.6,5.177-2.342l.371.867c-1.723.738-3.453,1.521-5.143,2.326Zm115.3-2.492c-1.733-.736-3.5-1.446-5.264-2.11l.333-.882c1.772.669,3.555,1.384,5.3,2.125ZM584.455,155.2l-.336-.881c1.765-.673,3.569-1.319,5.362-1.92l.3.894c-1.781.6-3.573,1.239-5.326,1.908Zm94.312-2.056c-1.782-.591-3.6-1.154-5.405-1.672l.261-.906c1.817.522,3.647,1.088,5.441,1.683ZM595.181,151.6l-.263-.905c1.814-.528,3.664-1.026,5.5-1.48l.227.915c-1.824.451-3.662.946-5.464,1.47Zm72.712-1.581c-1.821-.444-3.679-.857-5.523-1.228l.186-.925c1.856.373,3.727.79,5.56,1.237Zm-61.73-1.135-.189-.924c1.849-.379,3.734-.725,5.6-1.029l.152.931c-1.856.3-3.728.647-5.565,1.023Zm50.639-1.1c-1.855-.3-3.74-.558-5.6-.778l.111-.937c1.877.222,3.775.486,5.642.784Zm-39.473-.723-.114-.936c1.876-.228,3.782-.422,5.666-.575l.076.94C621.086,146.65,619.192,146.842,617.328,147.069Zm28.239-.608c-1.87-.146-3.77-.256-5.648-.327l.036-.943c1.891.072,3.8.183,5.686.329Zm-16.963-.309-.039-.942c1.886-.078,3.8-.119,5.694-.122v.943C632.382,146.034,630.478,146.075,628.6,146.152Z" transform="translate(-317.728 -134.073)" fill="#ccc"/><circle cx="91.008" cy="91.008" r="91.008" transform="translate(175.806 58.745)" fill="#3f3d56"/><ellipse cx="48.333" cy="66.488" rx="48.333" ry="66.488" transform="translate(186.181 83.265)" fill="#fff"/><ellipse cx="13.489" cy="21.22" rx="13.489" ry="21.22" transform="translate(205.003 142.62)" fill="#3f3d56"/><circle cx="8.959" cy="8.959" r="8.959" transform="translate(436.66 89.97)" fill="#2c5e5f"/><path d="M13.2,0A13.2,13.2,0,1,1,0,13.2,13.2,13.2,0,0,1,13.2,0Z" transform="translate(328.924 0)" fill="#2c5e5f"/><circle cx="8.959" cy="8.959" r="8.959" transform="translate(324.42 283.495)" fill="#2c5e5f"/></svg>